<svg xmlns="http://www.w3.org/2000/svg" width="64" height="65" viewBox="0 0 64 65">
  <ellipse id="Ellipse_3209" data-name="Ellipse 3209" cx="32" cy="32.5" rx="32" ry="32.5" fill="#1c85cb"/>
  <path id="hotel-building-svgrepo-com" d="M10.81,0,9.927,1.827l-2.009.24,1.527,1.35-.4,2.068L10.81,4.452l1.769,1.033-.4-2.068L13.7,2.068l-2.009-.24Zm1.769,5.485H8.153A4.112,4.112,0,0,0,4,9.638V35.26a.786.786,0,0,0,.784.784H18.1V28.208h4.7v7.836h13.32a.786.786,0,0,0,.784-.784V9.638a4.112,4.112,0,0,0-4.153-4.153H12.579Zm2.892,0,1.768-1.033,1.769,1.033-.4-2.068,1.527-1.35-2.009-.24L17.239,0l-.883,1.827-2.009.24,1.527,1.35Zm6.429,0L23.67,4.452l1.768,1.033-.4-2.068,1.527-1.35-2.009-.24L23.67,0l-.885,1.827-2.009.24L22.3,3.417Zm6.429,0L30.1,4.452l1.768,1.033-.4-2.068,1.527-1.35-2.009-.24L30.1,0l-.885,1.827-2.009.24,1.527,1.35ZM8.7,9.4h4.7v3.134H8.7Zm9.4,0h4.7v3.134H18.1Zm9.4,0h4.7v3.134h-4.7ZM8.7,15.671h4.7v3.134H8.7Zm9.4,0h4.7v3.134H18.1Zm9.4,0h4.7v3.134h-4.7ZM8.7,21.939h4.7v3.134H8.7Zm9.4,0h4.7v3.134H18.1Zm9.4,0h4.7v3.134h-4.7ZM8.7,28.208h4.7v3.134H8.7Zm18.805,0h4.7v3.134h-4.7Z" transform="translate(11.545 14.478)" fill="#fff"/>
</svg>
