<svg xmlns="http://www.w3.org/2000/svg" width="64" height="65" viewBox="0 0 64 65">
  <ellipse id="Ellipse_3209" data-name="Ellipse 3209" cx="32" cy="32.5" rx="32" ry="32.5" fill="#43e7cc"/>
  <g id="camping-at-night-svgrepo-com" transform="translate(12.826 13.618)">
    <path id="Path_82460" data-name="Path 82460" d="M38.228,32.542c-1.561-5.57-5.777-10.951-8.806-15.813C27.286,13.3,24.959,9.44,20.963,8.048a3.935,3.935,0,0,0,.015-.405q0-.706-.008-1.411a.613.613,0,0,0-1.225,0c-.013.311-.061.617-.068.928a4.181,4.181,0,0,0,.021.458c-6.307,3.073-5.725,13.528-6.618,19.969a4.954,4.954,0,0,0-.867-.849,5.5,5.5,0,0,0-.8-.57.408.408,0,0,0-.6.315.45.45,0,0,0-.072.171,5.439,5.439,0,0,1-.609,1.87A6.544,6.544,0,0,0,8.1,25.85a5.752,5.752,0,0,0-4.571-2.281.482.482,0,0,0-.338.813.7.7,0,0,0,.183.84,5.239,5.239,0,0,1,2.135,4.258c-.042-.019-.081-.043-.121-.065a3.95,3.95,0,0,1-.876-1.724.262.262,0,0,0-.485-.023.6.6,0,0,0-.086-.019.18.18,0,0,0-.222-.094,2.882,2.882,0,0,0-2.162,3.358,4.754,4.754,0,0,0,.949,3.719c-.032,0-.063,0-.095.008a2.625,2.625,0,0,0-.624.208A2.7,2.7,0,0,0,.223,36.039a1.7,1.7,0,0,0,.253,2.03,1.879,1.879,0,0,0,1.2.5l.035.01a1.658,1.658,0,0,0,.908-.106l.055-.013a3.889,3.889,0,0,0,1.16-.592,3.709,3.709,0,0,0,.216,1.043c0,.008,0,.016,0,.025a2.366,2.366,0,0,0,1.376,1.851,1.534,1.534,0,0,0,1.661-.357l.05-.032a2.067,2.067,0,0,0,.924,1.865c1.59,1.147,3.87-1.6,3.945-3.249,1.5.918,3.313,1.506,4.175.188a2.243,2.243,0,0,0,.248-.514c4.1,1.759,9.5.157,13.484-1.091C32.061,36.926,39.36,36.583,38.228,32.542Zm-32.8-6.823a6.394,6.394,0,0,1,2.64,1.768A12.16,12.16,0,0,1,9.3,30.6c.116.469.924.379.859-.116-.008-.058-.021-.117-.03-.176.008-.009.014-.019.022-.029a.549.549,0,0,0,.168-.112,5.084,5.084,0,0,0,1.347-2.417,3.642,3.642,0,0,1,1.151,1.546.322.322,0,0,0,.014.04,4.2,4.2,0,0,1,.065,2.6,3.549,3.549,0,0,0-.552-1.106l0,0c0-.006-.008-.008-.011-.013a6.341,6.341,0,0,0-.542-.663.475.475,0,0,0-.744.1,10.015,10.015,0,0,1-.669,1.1c-.44.323-.869.662-1.3,1a8.23,8.23,0,0,1-.758-.675c-.334-.538-.681-1.069-.984-1.626a.339.339,0,0,0-.528-.11,6.119,6.119,0,0,0-.766-3.2l-.018-.035c-.071-.134-.143-.268-.22-.4s-.147-.252-.229-.375C5.522,25.852,5.478,25.786,5.433,25.719ZM2.17,37.353c-.065.008-.131.009-.2.011-.018,0-.15-.01-.171-.008-.086-.02-.293-.083-.187-.038a1.251,1.251,0,0,1-.134-.07l-.01-.056c0-.055-.009-.11-.009-.164,0-.07,0-.14,0-.211,0-.017,0-.035,0-.052v0a1.914,1.914,0,0,1,.9.339c.038.059.075.119.111.179C2.381,37.308,2.183,37.351,2.17,37.353Zm1.317-.607c-.012.009-.025.015-.037.024a3.147,3.147,0,0,0-1.576-.82,4.759,4.759,0,0,1,.675-.488c.167-.067.341-.129.52-.183a6.631,6.631,0,0,0,1.074.867C3.905,36.332,3.692,36.593,3.487,36.745Zm.768-5.5a.326.326,0,0,0-.551.228A7.568,7.568,0,0,0,3.9,33.009c.058.362.126.712.215,1.049a6.093,6.093,0,0,1-1.55-2.792,4.279,4.279,0,0,1,1.022-2.038A2.539,2.539,0,0,0,5.057,30.27,3.647,3.647,0,0,0,6,30.906a.519.519,0,0,0,.668-.181c.06.5.082,1,.1,1.495-.054.23-.106.459-.158.689A13.5,13.5,0,0,1,4.254,31.241Zm1.784,8.148a1.221,1.221,0,0,1-.672-.49,1.553,1.553,0,0,1,.187-.179c.036-.013.063-.03.1-.042a7.284,7.284,0,0,1,1.17-.03l.1.042C6.777,39.162,6.53,39.521,6.038,39.389ZM7.22,37.294a5.3,5.3,0,0,0-.116.572,2.153,2.153,0,0,0-2.055.021c-.032.017-.062.038-.094.056-.024-.1-.051-.191-.071-.287a4.9,4.9,0,0,1,.267-.955,7.116,7.116,0,0,0,2.07.564C7.221,37.275,7.221,37.285,7.22,37.294Zm.76-1.123a5.417,5.417,0,0,1-2.42-.9,5.932,5.932,0,0,1-.484-1.657,5.291,5.291,0,0,0,1.745.771A.49.49,0,0,0,7.427,34,.437.437,0,0,0,7.6,33.6c-.013-.1-.015-.192-.025-.288.061-.268.129-.532.2-.8.082.08.165.16.249.238.124.215.247.431.364.651a.4.4,0,0,0,.454.185c.031-.009.059-.021.09-.03A.6.6,0,0,0,9.3,33.5c.781-.433,1.475-.989,2.221-1.472a5.043,5.043,0,0,1,.365,1.529.632.632,0,0,0,.081.264A6.325,6.325,0,0,1,9.929,35.7a3.592,3.592,0,0,1-.566.248c0-.008,0-.016,0-.024-.011-.147-.247-.2-.275-.037a1.232,1.232,0,0,1-.044.158A4.206,4.206,0,0,1,7.981,36.171Zm.481,4.513a1.36,1.36,0,0,1,.006-.578c.008,0,.016,0,.025-.007.217,0,.434.007.652.022a4.2,4.2,0,0,1,.825.158A1.506,1.506,0,0,1,8.462,40.684Zm2.066-1.347a4.183,4.183,0,0,0-1.816-.063c.023-.069.045-.137.061-.2.07-.256.141-.509.212-.763.057-.18.112-.361.16-.544s.115-.387.178-.58c.058-.01.116-.018.174-.03a2.91,2.91,0,0,0,.3-.085.474.474,0,0,0,.12.27,8.526,8.526,0,0,0,1.152,1.026A8.051,8.051,0,0,0,10.528,39.336Zm2.866-1.223a1.873,1.873,0,0,0,.071.236c-.317-.135-.615-.286-.837-.393a10.829,10.829,0,0,1-1.976-1.2,5.59,5.59,0,0,0,1.024-.616l.057-.041c.032-.025.062-.052.093-.077a6.012,6.012,0,0,1,2.021.706A1.451,1.451,0,0,0,13.394,38.113Zm1.556.476a.955.955,0,0,1-.208.042.664.664,0,0,1-.133-.679.7.7,0,0,1,.377-.313C15.31,38.013,15.458,38.4,14.949,38.589Zm1.2-1.843c-.01,0-.017.006-.026.007a2.763,2.763,0,0,0-.7-.706,6.461,6.461,0,0,0-2.668-.949l-.009,0c.046-.059.087-.122.131-.183A6.773,6.773,0,0,0,14.2,31a.382.382,0,0,0,.1-.173c1.255-4.688,1.746-9.553,2.989-14.249a26.161,26.161,0,0,1,2.536-6.452c-.006.21-.017.42-.025.631-1.973,4.549-2.327,9.572-3.456,14.371-1,4.257-1.4,7.526.22,11.588C16.422,36.728,16.286,36.736,16.151,36.746ZM17.7,24.365c.835-3.578,1.221-7.222,1.949-10.811-.532,7.6-1.973,15.071-2.235,22.692C16.008,32.013,16.682,28.714,17.7,24.365ZM19,36.574a74.6,74.6,0,0,0,.678-8.3,95.058,95.058,0,0,0,1.2-10.485c2.413,6.153,3.816,13.042,8.2,18.117C25.741,36.338,22.344,36.409,19,36.574Zm5.427-13.99c-1.431-3.075-3.3-6.927-3.564-10.584a36.721,36.721,0,0,0,4.534,9.371c2.661,3.979,6.914,7.29,5.948,12.058a15.507,15.507,0,0,0-.659,1.442A130.074,130.074,0,0,1,24.423,22.583ZM36.41,33.662a3.666,3.666,0,0,1-1.427.976c-.888.287-1.79.513-2.7.711a9.283,9.283,0,0,0,.681-2.745,8.927,8.927,0,0,0,.556-1.973c.193-1.32-1.266-2.882-2.24-3.96-.248-.373-.517-.744-.815-1.111A59.879,59.879,0,0,1,21.435,10.75c-.094-.3-.186-.591-.267-.887,1.861,1.434,5.47,6.361,5.84,6.86A91.463,91.463,0,0,1,32.492,25.1c.726,1.245,1.411,2.511,2.075,3.79C35.107,29.928,36.835,32.333,36.41,33.662Z" transform="translate(0.001 -4.774)" fill="#fff"/>
    <path id="Path_82461" data-name="Path 82461" d="M34.721,6.549c-1.022,1.723-2.591,2.071-3.65.214a2.74,2.74,0,0,1,1.46-4.141.436.436,0,0,0,.285-.462.283.283,0,0,0,0-.539c-4.377-1.4-7.808,5.011-5.026,8.341s8.025,1.039,8-3.122A.58.58,0,0,0,34.721,6.549Z" transform="translate(-21.294 -1.424)" fill="#fff"/>
  </g>
</svg>
