<svg xmlns="http://www.w3.org/2000/svg" width="64" height="64" viewBox="0 0 64 64">
  <circle id="Ellipse_3209" data-name="Ellipse 3209" cx="32" cy="32" r="32" fill="#8143ee"/>
  <path id="car-roof-box-svgrepo-com" d="M5.765,6a.82.82,0,0,0-.582.241L2.712,8.712a.823.823,0,0,0-.217.782l.824,3.294a.826.826,0,0,0,.8.624H8.235v1.647H7.081A4.122,4.122,0,0,0,3.4,17.329l.026-.048L.608,22.072A4.114,4.114,0,0,0,0,24.224v7.56A2.229,2.229,0,0,0,2.216,34H3.37A4.934,4.934,0,0,0,13.1,34H28.076a4.934,4.934,0,0,0,9.731,0h.9a2.483,2.483,0,0,0,2.471-2.471v-3.8a4.127,4.127,0,0,0-3.441-4.061l-6.859-1.144-5.733-6A4.117,4.117,0,0,0,22,15.059h-.585V13.412H25.53a.823.823,0,0,0,.737-.455l1.647-3.294A.825.825,0,0,0,27.394,8.5L18.335,6.029A.836.836,0,0,0,18.118,6Zm4.118,7.412h9.883v1.647H9.883Zm-2.8,3.294H14v5.765H2.284l2.577-4.378.013-.026A2.466,2.466,0,0,1,7.081,16.706Zm8.567,0H22a2.467,2.467,0,0,1,1.888.878l.016.019,4.644,4.867h-12.9ZM8.235,29.883a3.294,3.294,0,1,1-3.294,3.294A3.282,3.282,0,0,1,8.235,29.883Zm24.706,0a3.294,3.294,0,1,1-3.294,3.294A3.282,3.282,0,0,1,32.942,29.883Z" transform="translate(11.411 9.941)" fill="#fff"/>
</svg>
