<svg xmlns="http://www.w3.org/2000/svg" width="64" height="65" viewBox="0 0 64 65">
  <path id="Path_82463" data-name="Path 82463" d="M32,0C49.673,0,64,14.551,64,32.5S49.673,65,32,65,0,50.449,0,32.5,14.327,0,32,0Z" fill="#1ca8cb"/>
  <path id="travel-svgrepo-com" d="M31.974,48.066l-5.992-1.177c.086-.665.15-1.308.185-1.923l4.108-2.758a52.063,52.063,0,0,1,1.7,5.858Zm-4.92-12.517-2.026,1.36a15.109,15.109,0,0,1,.51,1.491L29,39.08A26.129,26.129,0,0,0,27.13,35.7q-.04-.076-.077-.154Zm3.027,6.124q-.373-1-.8-1.978l-3.591-.705a19.677,19.677,0,0,1,.514,5.289l3.882-2.606ZM19.743,32.328a1.683,1.683,0,0,0-.11.586,1.709,1.709,0,0,0,.925,1.513,2.147,2.147,0,0,0-.1.612,2.18,2.18,0,0,0,4.156.926c.067.139.135.276.2.424l2.009-1.351q-.046-.1-.094-.206a7.106,7.106,0,0,1-.328-.793,1.709,1.709,0,1,0-.373-2.683,7.455,7.455,0,0,1,4.432-6.009,7.544,7.544,0,0,1,7.209.324,7.543,7.543,0,0,0-13.355,2.219,5.29,5.29,0,0,1,1.508-3.9A7.541,7.541,0,0,1,33.44,21.94,7.547,7.547,0,0,0,21.085,27.36,5.919,5.919,0,0,0,10.25,31.03a5.919,5.919,0,0,1,10.474-1.362,7.541,7.541,0,0,0-9.991,9.18,7.532,7.532,0,0,1,9.009-6.52Zm15.073,20.6,2.779-.546c-.041-.309-.07-.607-.086-.892L35.6,50.214a24.281,24.281,0,0,0-.787,2.718Zm3.223-5.178-.941-.631c-.017.035-.029.061-.036.071a12.139,12.139,0,0,0-.867,1.567l1.6-.316a6.843,6.843,0,0,1,.24-.691Zm-1.973,1.295c-.133.3-.256.609-.373.919l1.8,1.208a9.049,9.049,0,0,1,.239-2.455l-1.667.329Zm-1.932-8.237a3.505,3.505,0,0,1,3.535.951,2.451,2.451,0,0,1,.7,1.809,3.5,3.5,0,0,0-6.2-1.029,3.5,3.5,0,0,1,3.346-.15,3.452,3.452,0,0,1,2.056,2.788.8.8,0,1,0-.174,1.247,3.183,3.183,0,0,1-.152.368q-.02.049-.044.1l.934.625c.029-.066.061-.131.092-.2a1.009,1.009,0,0,0,1.883-.713.79.79,0,0,0,.43-.7.774.774,0,0,0-.051-.272,3.5,3.5,0,0,1,4.18,3.024A3.5,3.5,0,0,0,40.032,44.4a2.744,2.744,0,0,1,4.858.63,2.747,2.747,0,0,0-5.028-1.7,3.5,3.5,0,0,0-5.728-2.515Zm4.353,15.119a17.712,17.712,0,0,1-.86-3.291l-2.873.566c-.065.293-.123.573-.176.846l2.738,1.839-.476-.013-2.313-1.555c-.1.571-.18,1.079-.238,1.508-.329,0-.663,0-.995-.007q-.268-2.39-.7-4.757l-7.293,4.9c-.361.016-.713.033-1.062.051l8.243-5.535q-.175-.917-.375-1.828l-6.2-1.217a39.715,39.715,0,0,1-2.424,8.621c-5.344.306-8.951.877-8.951,1.533,0,.978,7.983,1.771,17.828,1.771S50.19,58.57,50.19,57.592c0-.765-4.878-1.415-11.7-1.661Z" transform="translate(2.358 -8.203)" fill="#fff"/>
</svg>
