<svg id="Group_157754" data-name="Group 157754" xmlns="http://www.w3.org/2000/svg" xmlns:xlink="http://www.w3.org/1999/xlink" width="89.511" height="81.401" viewBox="0 0 89.511 81.401">
  <defs>
    <clipPath id="clip-path">
      <rect id="Rectangle_164158" data-name="Rectangle 164158" width="89.511" height="81.401" fill="#189cce"/>
    </clipPath>
  </defs>
  <g id="Group_156972" data-name="Group 156972" clip-path="url(#clip-path)">
    <path id="Path_82398" data-name="Path 82398" d="M65.17,51.672a9.318,9.318,0,0,0-5.377,7.591,20.948,20.948,0,0,0,1.679,11.567c2.191,4.43,5.378,7.619,11.093,6.992,1.87.458,3.636-.49,5.509-1.1,4.925-1.61,7.539-5.122,8.609-10,.151-.686.194-1.4.331-2.086,1.034-5.227-.375-9.41-5.164-12.166-.366-.21-.689-.493-1.054-.7-4.259-2.455-8.669-3.164-13.309-1.122-.773.341-1.566.643-2.317,1.027m13.466,1.764A16.53,16.53,0,0,1,83.6,58.4c.813,1.269.717,3.238.709,4.892a11.621,11.621,0,0,1-3.582,8.7,6.915,6.915,0,0,1-3.193,1.926,6.548,6.548,0,0,0-1.636.366c-2.613,1.455-5.265,1.024-7.676-.2a10.34,10.34,0,0,1-4.8-5.671A15.786,15.786,0,0,1,62.2,61.728C62.21,56.5,64,54.033,68.893,52.5a11.435,11.435,0,0,1,9.743.94" transform="translate(-24.416 -20.247)" fill="#189cce"/>
    <path id="Path_82399" data-name="Path 82399" d="M.875,37.134c-.433.294-.759.4-.841.6a1.045,1.045,0,0,0,.128.775,1.164,1.164,0,0,0,.593.57c3.213.795,5.79,2.789,8.55,4.451a19.476,19.476,0,0,0,3.075,1.4q5.909,2.272,11.847,4.468a11.085,11.085,0,0,0,2.434.491c.218.027.675-.256.674-.4,0-.379-.081-.991-.318-1.1-2.814-1.283-5.669-2.477-8.5-3.724-3.985-1.755-7.947-3.562-11.942-5.293-1.92-.832-3.893-1.541-5.7-2.25" transform="translate(0 -15.204)" fill="#189cce"/>
    <path id="Path_82400" data-name="Path 82400" d="M134.678,45.052c.948.142,1.7-.974,1.661-2.044a1.79,1.79,0,0,0-1.944-1.75,4.584,4.584,0,0,0-1.233.244c-5.336,2.151-10.681,4.28-15.978,6.525a9.855,9.855,0,0,0-2.627,2.024,1.155,1.155,0,0,0-.057,1.134,3.67,3.67,0,0,0,1.407.551.532.532,0,0,0,.383-.148c2.554-2.1,5.705-3,8.7-4.141,3.106-1.18,6.1-2.929,9.686-2.4" transform="translate(-46.83 -16.889)" fill="#189cce"/>
    <path id="Path_82401" data-name="Path 82401" d="M97.059,101.74c-.306-.207-1.051.017-1.464.266-.238.143-.275.724-.283,1.11a1.786,1.786,0,0,0,.322.759c3.045,5.648,6.083,11.3,9.16,16.929a3.774,3.774,0,0,0,1.182,1.128.875.875,0,0,0,.778-.057c.2-.126.288-.442.562-.908-.7-1.772-1.309-3.78-2.246-5.623-2.025-3.985-4.192-7.9-6.362-11.807a5.434,5.434,0,0,0-1.649-1.8" transform="translate(-39.024 -41.623)" fill="#189cce"/>
    <path id="Path_82402" data-name="Path 82402" d="M52.261,9.468c-.8-1.942-1.366-3.984-2.04-5.98-.228-.674-.465-1.345-1.644-1.255a16.425,16.425,0,0,0,1.57,7.977c2.62,4.977,5.33,9.907,8.016,14.849.2.361.449.863.769.949a11.558,11.558,0,0,0,2.446.044c-.681-1.282-.917-1.776-1.2-2.244-2.8-4.691-5.821-9.269-7.921-14.341" transform="translate(-19.889 -0.911)" fill="#189cce"/>
    <path id="Path_82403" data-name="Path 82403" d="M7.526,98.315c-.256.2-.3.674-.562,1.345a7.172,7.172,0,0,0,1.793-.216,23.728,23.728,0,0,1,2.614-1.351c6.435-1.812,11.9-5.72,17.977-8.288a4.33,4.33,0,0,0,1.56-1.336,1.272,1.272,0,0,0,.035-1.162,1.436,1.436,0,0,0-1.031-.563,2.349,2.349,0,0,0-1.181.384C22.482,90.614,16.385,94.4,9.674,97a8.978,8.978,0,0,0-2.148,1.315" transform="translate(-2.851 -35.515)" fill="#189cce"/>
    <path id="Path_82404" data-name="Path 82404" d="M53.707,122.516c3.889-4.218,5.942-9.5,8.385-14.556a8.746,8.746,0,0,0,.624-2.86,1.258,1.258,0,0,0-.67-.935,1.228,1.228,0,0,0-1.134.1,12.939,12.939,0,0,0-1.43,2.472c-1.848,4.224-3.038,8.759-6.237,12.329a11.607,11.607,0,0,0-1.69,3.375c-.11.266.223.715.527,1.569.82-.752,1.254-1.1,1.625-1.5" transform="translate(-21.1 -42.613)" fill="#189cce"/>
    <path id="Path_82405" data-name="Path 82405" d="M105.28.034a1.506,1.506,0,0,0-1.378.5c-1.162,2.079-2.166,4.246-3.294,6.345A15.355,15.355,0,0,0,98.795,12a17.9,17.9,0,0,1-2.115,6.788,9.48,9.48,0,0,0-.667,1.8c.836,1.261,1.683.953,2.085.116a31.905,31.905,0,0,0,2.523-6.222,32.673,32.673,0,0,1,3.732-9.323A18.054,18.054,0,0,0,105.969,1.3,1.462,1.462,0,0,0,105.28.034" transform="translate(-39.311 0)" fill="#189cce"/>
    <path id="Path_82406" data-name="Path 82406" d="M131.906,89.681c.394.025.821-.474,1.4-.839a9.343,9.343,0,0,0-4.037-2.671c-3.151-1.179-6.344-2.249-9.546-3.282a4.2,4.2,0,0,0-2.049,0c-.278.057-.526.59-.646.953a.848.848,0,0,0,.272.731,3.518,3.518,0,0,0,1.12.554,63.607,63.607,0,0,1,10.647,3.949,7.283,7.283,0,0,0,2.84.6" transform="translate(-47.909 -33.886)" fill="#189cce"/>
    <path id="Path_82407" data-name="Path 82407" d="M117.137,30.3A1.6,1.6,0,0,0,116,30.229c-3.1,1.73-5.411,4.378-7.847,6.872a1.484,1.484,0,0,0-.4,1.151,3.144,3.144,0,0,0,.851,1.706,1.2,1.2,0,0,0,1.788-.51,16.438,16.438,0,0,1,6.135-6.712c.52-.322.771-1.077,1.082-1.539-.22-.446-.287-.828-.468-.894" transform="translate(-44.109 -12.344)" fill="#189cce"/>
    <path id="Path_82408" data-name="Path 82408" d="M38.6,30.7a33.615,33.615,0,0,0,8.72,9.05,7.737,7.737,0,0,0,1.842.911c.139.053.441-.242.622-.422a.441.441,0,0,0,.05-.4,2.8,2.8,0,0,0-.62-1.053,44.985,44.985,0,0,1-8.075-7.99A29.092,29.092,0,0,0,38.147,28.1a9.1,9.1,0,0,0,.453,2.6" transform="translate(-15.619 -11.505)" fill="#189cce"/>
    <path id="Path_82409" data-name="Path 82409" d="M119.7,69.284a1.044,1.044,0,0,0,.791-.1c2.832-1.627,5.834-1.42,9.142-.683.314-2.022.087-2.577-1.055-2.913-3.439-1.014-6.551.176-9.594,1.566-.26.119-.321.991-.223,1.461.058.282.579.524.938.666" transform="translate(-48.608 -26.7)" fill="#189cce"/>
    <path id="Path_82410" data-name="Path 82410" d="M116.457,101.677a1.883,1.883,0,0,0,2.645.193c-1.422-3.282-3.168-5.01-7.139-7.052a2.234,2.234,0,0,0-2.884.119c.357.644.567,1.657,1.145,1.952a26.313,26.313,0,0,1,6.234,4.788" transform="translate(-44.66 -38.627)" fill="#189cce"/>
    <path id="Path_82411" data-name="Path 82411" d="M42.455,104.676c2.4-1.683,4.758-3.438,7.111-5.194a10.728,10.728,0,0,0,1.561-1.4c.467-.517.925-1.158.34-1.845a1.266,1.266,0,0,0-1.877-.049,49.619,49.619,0,0,1-3.9,3.177,15.113,15.113,0,0,0-5.068,5.342c.911,0,1.518.191,1.836-.031" transform="translate(-16.631 -39.222)" fill="#189cce"/>
    <path id="Path_82412" data-name="Path 82412" d="M79.137,29.3c.305-.064.532-.506.633-.612-.175-3.33-.328-6.408-.507-9.484a2.738,2.738,0,0,0-.289-1.211,1.774,1.774,0,0,0-.9-.657c-.135-.048-.536.249-.6.452-1.107,3.778-.376,7.472.617,11.134.059.22.721.445,1.041.378" transform="translate(-31.496 -7.096)" fill="#189cce"/>
    <path id="Path_82413" data-name="Path 82413" d="M36.37,72.86c.785-.356.908-.949.439-1.9-3.3-.182-6.384-.365-9.472-.518a11.682,11.682,0,0,0-2.511.051c-.464.079-.864.53-1.6,1.019a7.642,7.642,0,0,0,1.814.763c3.5.294,7.012.528,10.52.762a1.772,1.772,0,0,0,.812-.174" transform="translate(-9.508 -28.823)" fill="#189cce"/>
    <path id="Path_82414" data-name="Path 82414" d="M83.092,108.826c-.415,3.314-.723,6.642-.986,9.972-.031.393.43.826.857,1.586a18.56,18.56,0,0,0,1.925-7.569c.171-1.664.973-3.568-.567-5.476-.483.561-1.166.986-1.229,1.488" transform="translate(-33.616 -43.948)" fill="#189cce"/>
  </g>
</svg>
